<svg width="252" height="54" viewBox="0 0 252 54" fill="none" xmlns="http://www.w3.org/2000/svg">
<path d="M28 10.5C36.0081 10.5 42.5 16.9919 42.5 25V49.5H18C9.99187 49.5 3.5 43.0081 3.5 35V10.5H28Z" stroke="#007C46" stroke-width="7"/>
<line x1="5.22472" y1="11.0368" x2="25.4389" y2="32.44" stroke="#007C46" stroke-width="7"/>
<path d="M86.976 19.16V53H77.568V39.416H66.096V53H56.688V19.16H66.096V31.88H77.568V19.16H86.976ZM104.888 53.336C102.2 53.336 99.7839 52.776 97.6399 51.656C95.5279 50.536 93.8639 48.936 92.6479 46.856C91.4319 44.776 90.8239 42.328 90.8239 39.512C90.8239 36.728 91.4319 34.296 92.6479 32.216C93.8959 30.136 95.5759 28.536 97.6879 27.416C99.8319 26.296 102.248 25.736 104.936 25.736C107.624 25.736 110.024 26.296 112.136 27.416C114.28 28.536 115.96 30.136 117.176 32.216C118.424 34.296 119.048 36.728 119.048 39.512C119.048 42.296 118.424 44.744 117.176 46.856C115.96 48.936 114.28 50.536 112.136 51.656C109.992 52.776 107.576 53.336 104.888 53.336ZM104.888 45.176C106.2 45.176 107.288 44.696 108.152 43.736C109.048 42.744 109.496 41.336 109.496 39.512C109.496 37.688 109.048 36.296 108.152 35.336C107.288 34.376 106.216 33.896 104.936 33.896C103.656 33.896 102.584 34.376 101.72 35.336C100.856 36.296 100.424 37.688 100.424 39.512C100.424 41.368 100.84 42.776 101.672 43.736C102.504 44.696 103.576 45.176 104.888 45.176ZM132.284 30.824C133.34 29.288 134.62 28.072 136.124 27.176C137.628 26.28 139.244 25.832 140.972 25.832V35.864H138.332C136.284 35.864 134.764 36.264 133.772 37.064C132.78 37.864 132.284 39.256 132.284 41.24V53H122.876V26.072H132.284V30.824ZM160.232 44.984V53H156.152C149.272 53 145.832 49.592 145.832 42.776V33.896H142.52V26.072H145.832V19.544H155.288V26.072H160.184V33.896H155.288V42.92C155.288 43.656 155.448 44.184 155.768 44.504C156.12 44.824 156.696 44.984 157.496 44.984H160.232ZM163.011 39.512C163.011 36.728 163.507 34.296 164.499 32.216C165.523 30.136 166.899 28.536 168.627 27.416C170.387 26.296 172.339 25.736 174.483 25.736C176.339 25.736 177.939 26.104 179.283 26.84C180.627 27.576 181.667 28.568 182.403 29.816V26.072H191.811V53H182.403V49.256C181.667 50.504 180.611 51.496 179.235 52.232C177.891 52.968 176.307 53.336 174.483 53.336C172.339 53.336 170.387 52.776 168.627 51.656C166.899 50.536 165.523 48.936 164.499 46.856C163.507 44.744 163.011 42.296 163.011 39.512ZM182.403 39.512C182.403 37.784 181.923 36.424 180.963 35.432C180.035 34.44 178.883 33.944 177.507 33.944C176.099 33.944 174.931 34.44 174.003 35.432C173.075 36.392 172.611 37.752 172.611 39.512C172.611 41.24 173.075 42.616 174.003 43.64C174.931 44.632 176.099 45.128 177.507 45.128C178.883 45.128 180.035 44.632 180.963 43.64C181.923 42.648 182.403 41.272 182.403 39.512ZM206.58 17.48V53H197.172V17.48H206.58ZM216.69 23.576C215.026 23.576 213.682 23.128 212.658 22.232C211.666 21.304 211.17 20.152 211.17 18.776C211.17 17.368 211.666 16.2 212.658 15.272C213.682 14.344 215.026 13.88 216.69 13.88C218.322 13.88 219.634 14.344 220.626 15.272C221.65 16.2 222.162 17.368 222.162 18.776C222.162 20.152 221.65 21.304 220.626 22.232C219.634 23.128 218.322 23.576 216.69 23.576ZM221.346 26.072V53H211.938V26.072H221.346ZM238.176 53.336C235.744 53.336 233.568 52.936 231.648 52.136C229.76 51.304 228.256 50.184 227.136 48.776C226.048 47.336 225.44 45.72 225.312 43.928H234.432C234.56 44.792 234.96 45.464 235.632 45.944C236.304 46.424 237.136 46.664 238.128 46.664C238.896 46.664 239.504 46.504 239.952 46.184C240.4 45.864 240.624 45.448 240.624 44.936C240.624 44.264 240.256 43.768 239.52 43.448C238.784 43.128 237.568 42.776 235.872 42.392C233.952 42.008 232.352 41.576 231.072 41.096C229.792 40.616 228.672 39.832 227.712 38.744C226.784 37.656 226.32 36.184 226.32 34.328C226.32 32.728 226.752 31.288 227.616 30.008C228.48 28.696 229.744 27.656 231.408 26.888C233.104 26.12 235.136 25.736 237.504 25.736C241.024 25.736 243.792 26.6 245.808 28.328C247.824 30.056 248.992 32.328 249.312 35.144H240.816C240.656 34.28 240.272 33.624 239.664 33.176C239.088 32.696 238.304 32.456 237.312 32.456C236.544 32.456 235.952 32.6 235.536 32.888C235.152 33.176 234.96 33.576 234.96 34.088C234.96 34.728 235.328 35.224 236.064 35.576C236.8 35.896 237.984 36.232 239.616 36.584C241.568 37 243.184 37.464 244.464 37.976C245.776 38.488 246.912 39.32 247.872 40.472C248.864 41.592 249.36 43.128 249.36 45.08C249.36 46.648 248.896 48.056 247.968 49.304C247.072 50.552 245.776 51.544 244.08 52.28C242.416 52.984 240.448 53.336 238.176 53.336Z" fill="#007C46"/>
</svg>
